<svg width="747" height="332" viewBox="0 0 747 332" fill="none" xmlns="http://www.w3.org/2000/svg">
<path d="M497.597 47.0352C553.821 11.1458 612.24 -8.63814 669.353 5.70419C697.732 12.8307 717.904 24.9523 730.378 39.9464C742.895 54.9918 747.477 72.7201 744.966 90.5245C739.966 125.988 707.1 160.942 655.029 176.944C653.181 177.512 651.223 176.475 650.655 174.627C650.087 172.779 651.124 170.821 652.972 170.253C703.4 154.756 733.535 121.458 738.034 89.547C740.274 73.6642 736.23 57.9242 724.997 44.4229C713.722 30.8702 695.019 19.3667 667.648 12.4933C613.261 -1.1644 556.902 17.4838 501.364 52.9356C445.855 88.3681 391.721 140.234 342.026 192.022C292.19 243.956 245.801 282.692 201.832 305.787C157.872 328.877 116.131 336.428 75.7796 325.671C51.4731 321.856 27.3796 309.297 2.35381 289.862C0.827136 288.677 0.550062 286.478 1.73564 284.951C2.92124 283.425 5.12009 283.149 6.64677 284.334C31.1121 303.334 54.0535 315.132 76.6829 318.727C90.8616 317.974 100.917 316.171 109.533 311.478C118.193 306.759 125.799 298.897 134.552 285.212L134.594 285.147L134.639 285.082C142.944 273.296 150.604 264.162 159.724 258.123C168.977 251.997 179.464 249.225 193.096 249.6L193.604 256.546C192.513 256.737 191.181 257.397 189.582 258.921C187.98 260.448 186.272 262.691 184.449 265.717C180.796 271.779 176.999 280.439 172.764 291.363C167.981 303.702 153.994 314.104 136.653 320.472C134.957 321.094 133.222 321.68 131.451 322.229C153.092 319.392 175.402 311.763 198.577 299.59C241.582 277.001 287.364 238.875 336.975 187.175C386.727 135.328 441.342 82.944 497.597 47.0352ZM181.804 257.158C174.728 258.164 168.892 260.448 163.588 263.96C155.621 269.235 148.587 277.445 140.394 289.067C131.358 303.178 122.991 312.118 112.882 317.625C111.375 318.446 109.838 319.183 108.265 319.85C117.537 318.871 126.357 316.796 134.24 313.901C150.858 307.799 162.533 298.387 166.237 288.833C170.489 277.865 174.466 268.72 178.453 262.104C179.542 260.297 180.656 258.637 181.804 257.158Z" fill="black" stroke="black" stroke-width="2" stroke-linecap="round"/>
</svg>
